<svg width="1420" height="382" viewBox="0 0 1420 382" fill="none" xmlns="http://www.w3.org/2000/svg">
<g clip-path="url(#clip0_41_34)">
<rect width="1420" height="382" rx="64" fill="url(#paint0_linear_41_34)"/>
<path fill-rule="evenodd" clip-rule="evenodd" d="M1470.06 -188.794C1528.96 -193.745 1552.4 -108.178 1596.46 -68.7675C1630.53 -38.2802 1682.58 -24.9292 1700.33 17.21C1717.89 58.9166 1685.67 104.996 1688.67 150.152C1691.95 199.764 1741.96 249.758 1718.65 293.673C1695.59 337.109 1632.55 339.915 1583.94 347.399C1545.43 353.329 1508.39 339.001 1470.06 331.943C1438.48 326.128 1410.06 312.315 1378.07 309.488C1316.9 304.081 1238.36 353.196 1197 307.807C1160.07 267.279 1233.69 204.976 1232.88 150.152C1232.05 94.0594 1162.85 37.5311 1192.29 -10.2203C1222.1 -58.5732 1307.59 -17.7822 1355.37 -48.5009C1407.06 -81.731 1408.83 -183.646 1470.06 -188.794Z" stroke="white"/>
<path fill-rule="evenodd" clip-rule="evenodd" d="M1467.03 -135.055C1514.15 -139.016 1532.91 -70.5624 1568.15 -39.0337C1595.41 -14.6439 1637.04 -3.96312 1651.24 29.7482C1665.3 63.1135 1639.52 99.9772 1641.92 136.102C1644.55 175.791 1684.55 215.787 1665.9 250.919C1647.45 285.668 1597.02 287.913 1558.14 293.899C1527.32 298.643 1497.69 287.181 1467.03 281.535C1441.77 276.883 1419.03 265.832 1393.44 263.57C1344.5 259.245 1281.67 298.537 1248.58 262.226C1219.04 229.804 1277.94 179.961 1277.29 136.102C1276.62 91.2278 1221.26 46.0052 1244.81 7.80403C1268.67 -30.8783 1337.05 1.75454 1375.28 -22.8204C1416.63 -49.4045 1418.05 -130.937 1467.03 -135.055Z" stroke="white"/>
<path fill-rule="evenodd" clip-rule="evenodd" d="M1464.61 -92.0635C1502.3 -95.2324 1517.31 -40.4694 1545.5 -15.2465C1567.31 4.26534 1600.62 12.81 1611.98 39.7791C1623.22 66.4713 1602.6 95.9622 1604.51 124.862C1606.62 156.613 1638.62 188.61 1623.7 216.715C1608.94 244.515 1568.6 246.311 1537.49 251.1C1512.84 254.895 1489.14 245.726 1464.61 241.209C1444.4 237.487 1426.2 228.646 1405.73 226.837C1366.59 223.377 1316.32 254.81 1289.85 225.761C1266.21 199.823 1313.33 159.949 1312.81 124.862C1312.28 88.9627 1267.99 52.7846 1286.83 22.2237C1305.91 -8.72214 1360.62 17.3841 1391.21 -2.27587C1424.29 -23.5431 1425.42 -88.769 1464.61 -92.0635Z" stroke="white"/>
<path fill-rule="evenodd" clip-rule="evenodd" d="M1462.67 -57.6709C1492.83 -60.206 1504.83 -16.3957 1527.38 3.78267C1544.83 19.3921 1571.48 26.2279 1580.56 47.8031C1589.56 69.1569 1573.06 92.7497 1574.59 115.87C1576.28 141.271 1601.88 166.868 1589.94 189.352C1578.14 211.592 1545.86 213.028 1520.98 216.86C1501.25 219.896 1482.29 212.56 1462.67 208.947C1446.5 205.969 1431.95 198.897 1415.57 197.449C1384.25 194.681 1344.03 219.828 1322.86 196.589C1303.95 175.839 1341.65 143.939 1341.23 115.87C1340.81 87.15 1305.37 58.2076 1320.45 33.7588C1335.71 9.00217 1379.48 29.8872 1403.95 14.1592C1430.41 -2.85462 1431.32 -55.0353 1462.67 -57.6709Z" stroke="white"/>
<path fill-rule="evenodd" clip-rule="evenodd" d="M1461.12 -30.1563C1485.24 -32.1844 1494.84 2.86384 1512.89 19.0065C1526.85 31.4941 1548.16 36.9627 1555.43 54.2229C1562.63 71.3059 1549.43 90.1801 1550.66 108.676C1552 128.997 1572.49 149.475 1562.94 167.462C1553.49 185.254 1527.67 186.403 1507.76 189.468C1491.99 191.897 1476.82 186.029 1461.12 183.138C1448.18 180.756 1436.54 175.098 1423.44 173.94C1398.38 171.725 1366.21 191.843 1349.27 173.251C1334.14 156.651 1364.3 131.132 1363.97 108.676C1363.63 85.7004 1335.28 62.5464 1347.34 42.9874C1359.55 23.1821 1394.57 39.8901 1414.14 27.3077C1435.31 13.6967 1436.04 -28.0479 1461.12 -30.1563Z" stroke="white"/>
<path fill-rule="evenodd" clip-rule="evenodd" d="M1459.88 -8.14489C1479.18 -9.76737 1486.86 18.2713 1501.29 31.1854C1512.46 41.1754 1529.51 45.5503 1535.33 59.3585C1541.08 73.0249 1530.53 88.1243 1531.51 102.921C1532.58 119.178 1548.97 135.56 1541.33 149.95C1533.78 164.183 1513.12 165.103 1497.19 167.555C1484.57 169.498 1472.43 164.803 1459.88 162.49C1449.53 160.585 1440.21 156.058 1429.73 155.132C1409.69 153.36 1383.95 169.455 1370.4 154.581C1358.3 141.301 1382.42 120.886 1382.16 102.921C1381.88 84.5405 1359.21 66.0173 1368.85 50.3701C1378.62 34.5259 1406.64 47.8923 1422.29 37.8264C1439.23 26.9375 1439.81 -6.45814 1459.88 -8.14489Z" stroke="white"/>
<path fill-rule="evenodd" clip-rule="evenodd" d="M1458.88 9.46416C1474.32 8.16618 1480.47 30.5971 1492.02 40.9284C1500.95 48.9204 1514.59 52.4203 1519.24 63.4669C1523.85 74.4 1515.4 86.4795 1516.19 98.3169C1517.05 111.322 1530.16 124.428 1524.05 135.94C1518 147.327 1501.48 148.062 1488.74 150.024C1478.64 151.578 1468.93 147.823 1458.88 145.972C1450.6 144.448 1443.15 140.827 1434.77 140.086C1418.73 138.668 1398.14 151.544 1387.3 139.645C1377.62 129.021 1396.92 112.689 1396.71 98.3169C1396.49 83.6125 1378.35 68.7939 1386.07 56.2762C1393.88 43.6008 1416.29 54.2939 1428.82 46.2412C1442.37 37.5301 1442.83 10.8136 1458.88 9.46416Z" stroke="white"/>
<path fill-rule="evenodd" clip-rule="evenodd" d="M1458.09 23.552C1470.44 22.5136 1475.36 40.4583 1484.59 48.7234C1491.74 55.117 1502.66 57.9169 1506.38 66.7542C1510.06 75.5007 1503.31 85.1642 1503.93 94.6342C1504.62 105.038 1515.11 115.523 1510.22 124.733C1505.38 133.842 1492.16 134.43 1481.97 136C1473.89 137.243 1466.13 134.239 1458.09 132.759C1451.47 131.539 1445.5 128.642 1438.8 128.049C1425.97 126.915 1409.5 137.216 1400.82 127.697C1393.08 119.197 1408.52 106.132 1408.35 94.6342C1408.17 82.8706 1393.66 71.0158 1399.83 61.0016C1406.09 50.8613 1424.01 59.4158 1434.04 52.9736C1444.88 46.0047 1445.25 24.6315 1458.09 23.552Z" stroke="white"/>
<path fill-rule="evenodd" clip-rule="evenodd" d="M1457.45 34.8217C1467.33 33.991 1471.27 48.3467 1478.66 54.9588C1484.38 60.0737 1493.11 62.3136 1496.08 69.3834C1499.03 76.3806 1493.63 84.1115 1494.13 91.6874C1494.68 100.011 1503.07 108.399 1499.16 115.766C1495.29 123.054 1484.71 123.524 1476.56 124.78C1470.1 125.775 1463.88 123.371 1457.45 122.187C1452.15 121.211 1447.39 118.894 1442.02 118.419C1431.76 117.512 1418.58 125.753 1411.64 118.138C1405.44 111.338 1417.8 100.885 1417.66 91.6874C1417.52 82.2766 1405.91 72.7927 1410.85 64.7814C1415.85 56.6691 1430.19 63.5127 1438.21 58.3589C1446.88 52.7839 1447.18 35.6853 1457.45 34.8217Z" stroke="white"/>
<path fill-rule="evenodd" clip-rule="evenodd" d="M15.0631 80.206C73.9635 75.2546 97.4048 160.822 141.457 200.232C175.534 230.72 227.577 244.071 245.326 286.21C262.893 327.917 230.674 373.996 233.666 419.152C236.954 468.764 286.963 518.758 263.648 562.673C240.586 606.109 177.55 608.915 128.943 616.399C90.4251 622.329 53.3907 608.001 15.0631 600.943C-16.5174 595.128 -44.9423 581.315 -76.9291 578.488C-138.097 573.081 -216.643 622.196 -258.003 576.807C-294.933 536.279 -221.307 473.976 -222.118 419.152C-222.949 363.059 -292.154 306.531 -262.71 258.78C-232.896 210.427 -147.413 251.218 -99.6293 220.499C-47.9395 187.269 -46.1706 85.3536 15.0631 80.206Z" stroke="white"/>
<path fill-rule="evenodd" clip-rule="evenodd" d="M12.0327 133.945C59.153 129.984 77.906 198.438 113.147 229.966C140.409 254.356 182.044 265.037 196.243 298.748C210.297 332.114 184.521 368.977 186.915 405.102C189.545 444.791 229.553 484.787 210.901 519.919C192.451 554.668 142.022 556.913 103.137 562.899C72.3223 567.643 42.6948 556.181 12.0327 550.535C-13.2318 545.883 -35.9716 534.832 -61.5611 532.57C-110.496 528.245 -173.333 567.537 -206.42 531.226C-235.964 498.804 -177.063 448.961 -177.712 405.102C-178.377 360.228 -233.741 315.005 -210.186 276.804C-186.335 238.122 -117.948 270.755 -79.7213 246.18C-38.3695 219.596 -36.9543 138.063 12.0327 133.945Z" stroke="white"/>
<path fill-rule="evenodd" clip-rule="evenodd" d="M9.60839 176.937C47.3046 173.768 62.307 228.531 90.5002 253.753C112.31 273.265 145.617 281.81 156.977 308.779C168.22 335.471 147.599 364.962 149.514 393.862C151.619 425.613 183.624 457.61 168.703 485.715C153.943 513.515 113.6 515.311 82.4917 520.1C57.8401 523.895 34.138 514.726 9.60839 510.209C-10.6032 506.487 -28.7951 497.646 -49.2667 495.837C-88.4143 492.377 -138.684 523.81 -165.154 494.761C-188.789 468.823 -141.668 428.949 -142.188 393.862C-142.719 357.963 -187.01 321.785 -168.167 291.224C-149.086 260.278 -94.3761 286.384 -63.7948 266.724C-30.7133 245.457 -29.5812 180.231 9.60839 176.937Z" stroke="white"/>
<path fill-rule="evenodd" clip-rule="evenodd" d="M7.66864 211.329C37.8256 208.794 49.8276 252.604 72.3821 272.783C89.8297 288.392 116.476 295.228 125.563 316.803C134.558 338.157 118.061 361.75 119.593 384.87C121.277 410.271 146.882 435.868 134.944 458.352C123.137 480.592 90.8618 482.028 65.9753 485.86C46.254 488.896 27.2924 481.56 7.66864 477.947C-8.50061 474.969 -23.0541 467.897 -39.4314 466.449C-70.7495 463.681 -110.965 488.828 -132.141 465.589C-151.049 444.839 -113.353 412.939 -113.768 384.87C-114.193 356.15 -149.626 327.208 -134.551 302.759C-119.287 278.002 -75.519 298.887 -51.0539 283.159C-24.5887 266.145 -23.6831 213.965 7.66864 211.329Z" stroke="white"/>
<path fill-rule="evenodd" clip-rule="evenodd" d="M6.11686 238.844C30.2425 236.816 39.844 271.864 57.8876 288.007C71.8457 300.494 93.1625 305.963 100.433 323.223C107.628 340.306 94.4309 359.18 95.6567 377.676C97.0034 397.997 117.487 418.475 107.937 436.462C98.4912 454.254 72.6714 455.403 52.7622 458.468C36.9851 460.897 21.8158 455.029 6.11686 452.138C-6.81854 449.756 -18.4614 444.098 -31.5632 442.94C-56.6177 440.725 -88.7902 460.843 -105.731 442.251C-120.857 425.651 -90.7003 400.132 -91.0327 377.676C-91.3728 354.7 -119.719 331.546 -107.659 311.987C-95.4473 292.182 -60.4332 308.89 -40.8612 296.308C-19.689 282.697 -18.9645 240.952 6.11686 238.844Z" stroke="white"/>
<path fill-rule="evenodd" clip-rule="evenodd" d="M4.87556 260.855C24.176 259.233 31.8573 287.271 46.2922 300.185C57.4587 310.175 74.5121 314.55 80.3281 328.358C86.0845 342.025 75.5268 357.124 76.5074 371.921C77.5848 388.178 93.9718 404.56 86.3319 418.95C78.775 433.183 58.1192 434.103 42.1918 436.555C29.5702 438.498 17.4347 433.803 4.87556 431.49C-5.47276 429.585 -14.787 425.058 -25.2685 424.132C-45.3121 422.36 -71.0501 438.455 -84.6027 423.581C-96.7039 410.301 -72.5782 389.886 -72.8441 371.921C-73.1161 353.54 -95.7933 335.017 -86.1453 319.37C-76.3758 303.526 -48.3645 316.892 -32.7069 306.826C-15.7692 295.938 -15.1895 262.542 4.87556 260.855Z" stroke="white"/>
<path fill-rule="evenodd" clip-rule="evenodd" d="M3.88238 278.464C19.3228 277.166 25.4677 299.597 37.0157 309.928C45.9489 317.92 59.5916 321.42 64.2444 332.467C68.8495 343.4 60.4034 355.479 61.1879 367.317C62.0497 380.322 75.1594 393.428 69.0474 404.94C63.002 416.327 46.4773 417.062 33.7354 419.024C23.6381 420.578 13.9297 416.823 3.88238 414.972C-4.39628 413.448 -11.8477 409.827 -20.2328 409.086C-36.2677 407.668 -56.8581 420.544 -67.7003 408.645C-77.3812 398.021 -58.0806 381.689 -58.2933 367.317C-58.511 352.612 -76.6527 337.794 -68.9343 325.276C-61.1187 312.601 -38.7097 323.294 -26.1836 315.241C-12.6334 306.53 -12.1697 279.814 3.88238 278.464Z" stroke="white"/>
<path fill-rule="evenodd" clip-rule="evenodd" d="M3.08823 292.552C15.4405 291.514 20.3565 309.458 29.5949 317.723C36.7414 324.117 47.6556 326.917 51.3779 335.754C55.0619 344.501 48.305 354.164 48.9326 363.634C49.6221 374.038 60.1098 384.523 55.2203 393.733C50.3839 402.842 37.1641 403.43 26.9706 405C18.8928 406.243 11.1261 403.239 3.08823 401.759C-3.5347 400.539 -9.49582 397.642 -16.2039 397.049C-29.0319 395.915 -45.5042 406.216 -54.1779 396.697C-61.9226 388.197 -46.4821 375.132 -46.6523 363.634C-46.8265 351.871 -61.3398 340.016 -55.1651 330.002C-48.9126 319.861 -30.9854 328.416 -20.9645 321.974C-10.1244 315.005 -9.75343 293.632 3.08823 292.552Z" stroke="white"/>
<path fill-rule="evenodd" clip-rule="evenodd" d="M2.45261 303.822C12.3345 302.991 16.2672 317.347 23.6579 323.959C29.3752 329.074 38.1065 331.314 41.0843 338.383C44.0316 345.381 38.626 353.111 39.1281 360.687C39.6797 369.011 48.0699 377.399 44.1582 384.766C40.2891 392.054 29.7133 392.524 21.5585 393.78C15.0963 394.775 8.88291 392.371 2.45261 391.187C-2.84573 390.211 -7.61463 387.894 -12.9811 387.419C-23.2435 386.512 -36.4213 394.753 -43.3603 387.138C-49.5561 380.338 -37.2037 369.885 -37.3398 360.687C-37.4791 351.277 -49.0898 341.793 -44.1501 333.781C-39.1481 325.669 -24.8063 332.513 -16.7896 327.359C-8.11748 321.784 -7.82071 304.685 2.45261 303.822Z" stroke="white"/>
</g>
<defs>
<linearGradient id="paint0_linear_41_34" x1="0" y1="191" x2="1420" y2="191" gradientUnits="userSpaceOnUse">
<stop stop-color="#F6BDB3"/>
<stop offset="1" stop-color="#F5D7B5"/>
</linearGradient>
<clipPath id="clip0_41_34">
<rect width="1420" height="382" rx="64" fill="white"/>
</clipPath>
</defs>
</svg>
