<svg width="2482" height="709" viewBox="0 0 2482 709" fill="none" xmlns="http://www.w3.org/2000/svg">
<g filter="url(#filter0_f_470_1000)">
<circle cx="258.5" cy="346.5" r="76.5" fill="#F6BDB3"/>
</g>
<g filter="url(#filter1_f_470_1000)">
<circle cx="392.5" cy="391.5" r="76.5" fill="#F5D7B5"/>
</g>
<path fill-rule="evenodd" clip-rule="evenodd" d="M286.063 1.20602C344.964 -3.74538 368.405 81.8217 412.457 121.232C446.534 151.72 498.577 165.071 516.326 207.21C533.893 248.917 501.674 294.996 504.666 340.152C507.954 389.764 557.963 439.758 534.648 483.673C511.586 527.109 448.55 529.915 399.943 537.399C361.425 543.329 324.391 529.001 286.063 521.943C254.483 516.128 226.058 502.315 194.071 499.488C132.903 494.081 54.3565 543.196 12.997 497.807C-23.9327 457.279 49.6932 394.976 48.8817 340.152C48.0514 284.059 -21.1538 227.531 8.28959 179.78C38.1038 131.427 123.587 172.218 171.371 141.499C223.06 108.269 224.829 6.35357 286.063 1.20602Z" stroke="#0D0D0D"/>
<path fill-rule="evenodd" clip-rule="evenodd" d="M283.032 54.9451C330.153 50.984 348.906 119.438 384.147 150.966C411.409 175.356 453.044 186.037 467.243 219.748C481.296 253.114 455.521 289.977 457.915 326.102C460.545 365.791 500.553 405.787 481.9 440.919C463.451 475.668 413.022 477.913 374.137 483.899C343.322 488.643 313.695 477.181 283.032 471.535C257.768 466.883 235.028 455.832 209.439 453.57C160.504 449.245 97.6672 488.537 64.5796 452.226C35.0358 419.804 93.9365 369.961 93.2873 326.102C92.623 281.228 37.2589 236.005 60.8136 197.804C84.665 159.122 153.052 191.755 191.278 167.18C232.63 140.596 234.045 59.0631 283.032 54.9451Z" stroke="#0D0D0D"/>
<path fill-rule="evenodd" clip-rule="evenodd" d="M280.608 97.9363C318.305 94.7674 333.307 149.53 361.5 174.753C383.31 194.265 416.617 202.81 427.977 229.779C439.22 256.471 418.599 285.962 420.514 314.862C422.619 346.613 454.624 378.61 439.703 406.715C424.943 434.515 384.6 436.31 353.492 441.1C328.84 444.895 305.138 435.725 280.608 431.208C260.397 427.486 242.205 418.646 221.733 416.837C182.586 413.376 132.316 444.81 105.846 415.761C82.211 389.823 129.332 349.949 128.812 314.862C128.281 278.962 83.9895 242.784 102.833 212.223C121.914 181.278 176.624 207.384 207.205 187.724C240.287 166.457 241.419 101.231 280.608 97.9363Z" stroke="#0D0D0D"/>
<path fill-rule="evenodd" clip-rule="evenodd" d="M278.669 132.329C308.826 129.794 320.828 173.605 343.382 193.783C360.83 209.392 387.476 216.228 396.563 237.803C405.558 259.157 389.061 282.75 390.593 305.87C392.277 331.271 417.882 356.868 405.944 379.352C394.137 401.592 361.862 403.029 336.975 406.86C317.254 409.896 298.292 402.561 278.669 398.947C262.499 395.969 247.946 388.897 231.569 387.45C200.25 384.681 160.035 409.828 138.859 386.589C119.951 365.839 157.647 333.94 157.232 305.87C156.807 277.15 121.374 248.208 136.449 223.759C151.713 199.002 195.481 219.887 219.946 204.159C246.411 187.146 247.317 134.965 278.669 132.329Z" stroke="#0D0D0D"/>
<path fill-rule="evenodd" clip-rule="evenodd" d="M277.117 159.844C301.242 157.816 310.844 192.864 328.888 209.007C342.846 221.494 364.163 226.963 371.433 244.223C378.628 261.306 365.431 280.18 366.657 298.676C368.003 318.997 388.487 339.475 378.937 357.462C369.491 375.254 343.671 376.403 323.762 379.468C307.985 381.897 292.816 376.029 277.117 373.138C264.181 370.756 252.539 365.098 239.437 363.94C214.382 361.725 182.21 381.843 165.269 363.251C150.143 346.651 180.3 321.132 179.967 298.676C179.627 275.7 151.281 252.546 163.341 232.987C175.553 213.182 210.567 229.89 230.139 217.308C251.311 203.697 252.035 161.952 277.117 159.844Z" stroke="#0D0D0D"/>
<path fill-rule="evenodd" clip-rule="evenodd" d="M275.876 181.855C295.176 180.233 302.858 208.271 317.292 221.185C328.459 231.175 345.512 235.55 351.328 249.358C357.085 263.025 346.527 278.124 347.508 292.921C348.585 309.178 364.972 325.56 357.332 339.95C349.775 354.183 329.119 355.103 313.192 357.555C300.57 359.498 288.435 354.803 275.876 352.49C265.527 350.585 256.213 346.058 245.732 345.132C225.688 343.36 199.95 359.455 186.397 344.581C174.296 331.301 198.422 310.886 198.156 292.921C197.884 274.54 175.207 256.017 184.855 240.37C194.624 224.526 222.636 237.892 238.293 227.826C255.231 216.938 255.811 183.542 275.876 181.855Z" stroke="#0D0D0D"/>
<path fill-rule="evenodd" clip-rule="evenodd" d="M274.882 199.464C290.323 198.166 296.468 220.597 308.016 230.929C316.949 238.921 330.592 242.421 335.244 253.467C339.849 264.4 331.403 276.48 332.188 288.317C333.05 301.322 346.159 314.428 340.047 325.94C334.002 337.327 317.477 338.062 304.735 340.024C294.638 341.579 284.93 337.823 274.882 335.973C266.604 334.448 259.152 330.827 250.767 330.086C234.732 328.669 214.142 341.544 203.3 329.645C193.619 319.021 212.919 302.689 212.707 288.317C212.489 273.613 194.347 258.794 202.066 246.276C209.881 233.601 232.29 244.294 244.816 236.241C258.367 227.53 258.83 200.814 274.882 199.464Z" stroke="#0D0D0D"/>
<path fill-rule="evenodd" clip-rule="evenodd" d="M274.088 213.552C286.441 212.513 291.357 230.458 300.595 238.723C307.741 245.117 318.656 247.917 322.378 256.754C326.062 265.5 319.305 275.164 319.933 284.634C320.622 295.038 331.11 305.523 326.22 314.732C321.384 323.842 308.164 324.43 297.971 325.999C289.893 327.243 282.126 324.238 274.088 322.758C267.465 321.539 261.504 318.642 254.796 318.049C241.968 316.915 225.496 327.215 216.822 317.697C209.077 309.197 224.518 296.131 224.348 284.634C224.174 272.87 209.66 261.016 215.835 251.001C222.087 240.861 240.015 249.416 250.035 242.973C260.876 236.004 261.247 214.631 274.088 213.552Z" stroke="#0D0D0D"/>
<path fill-rule="evenodd" clip-rule="evenodd" d="M273.453 224.822C283.334 223.991 287.267 238.347 294.658 244.959C300.375 250.074 309.107 252.314 312.084 259.383C315.032 266.381 309.626 274.111 310.128 281.687C310.68 290.011 319.07 298.399 315.158 305.766C311.289 313.054 300.713 313.524 292.559 314.78C286.096 315.775 279.883 313.371 273.453 312.187C268.154 311.211 263.385 308.894 258.019 308.419C247.757 307.512 234.579 315.753 227.64 308.138C221.444 301.338 233.796 290.885 233.66 281.687C233.521 272.277 221.91 262.793 226.85 254.781C231.852 246.669 246.194 253.513 254.21 248.359C262.883 242.784 263.179 225.685 273.453 224.822Z" stroke="#0D0D0D"/>
<g filter="url(#filter2_f_470_1000)">
<circle cx="2198.5" cy="515.5" r="76.5" fill="#F6BDB3"/>
</g>
<g filter="url(#filter3_f_470_1000)">
<circle cx="2230.5" cy="393.5" r="76.5" fill="#F5D7B5"/>
</g>
<path fill-rule="evenodd" clip-rule="evenodd" d="M2226.06 170.206C2284.96 165.255 2308.4 250.822 2352.46 290.232C2386.53 320.72 2438.58 334.071 2456.33 376.21C2473.89 417.917 2441.67 463.996 2444.67 509.152C2447.95 558.764 2497.96 608.758 2474.65 652.673C2451.59 696.109 2388.55 698.915 2339.94 706.399C2301.43 712.329 2264.39 698.001 2226.06 690.943C2194.48 685.128 2166.06 671.315 2134.07 668.488C2072.9 663.081 1994.36 712.196 1953 666.807C1916.07 626.279 1989.69 563.976 1988.88 509.152C1988.05 453.059 1918.85 396.531 1948.29 348.78C1978.1 300.427 2063.59 341.218 2111.37 310.499C2163.06 277.269 2164.83 175.354 2226.06 170.206Z" stroke="#0D0D0D"/>
<path fill-rule="evenodd" clip-rule="evenodd" d="M2223.03 223.945C2270.15 219.984 2288.91 288.438 2324.15 319.966C2351.41 344.356 2393.04 355.037 2407.24 388.748C2421.3 422.114 2395.52 458.977 2397.92 495.102C2400.55 534.791 2440.55 574.787 2421.9 609.919C2403.45 644.668 2353.02 646.913 2314.14 652.899C2283.32 657.643 2253.7 646.181 2223.03 640.535C2197.77 635.883 2175.03 624.832 2149.44 622.57C2100.5 618.245 2037.67 657.537 2004.58 621.226C1975.04 588.804 2033.94 538.961 2033.29 495.102C2032.62 450.228 1977.26 405.005 2000.81 366.804C2024.67 328.122 2093.05 360.755 2131.28 336.18C2172.63 309.596 2174.05 228.063 2223.03 223.945Z" stroke="#0D0D0D"/>
<path fill-rule="evenodd" clip-rule="evenodd" d="M2220.61 266.936C2258.3 263.767 2273.31 318.53 2301.5 343.753C2323.31 363.265 2356.62 371.81 2367.98 398.779C2379.22 425.471 2358.6 454.962 2360.51 483.862C2362.62 515.613 2394.62 547.61 2379.7 575.715C2364.94 603.515 2324.6 605.31 2293.49 610.1C2268.84 613.895 2245.14 604.725 2220.61 600.208C2200.4 596.486 2182.2 587.646 2161.73 585.837C2122.59 582.376 2072.32 613.81 2045.85 584.761C2022.21 558.823 2069.33 518.949 2068.81 483.862C2068.28 447.962 2023.99 411.784 2042.83 381.223C2061.91 350.278 2116.62 376.384 2147.21 356.724C2180.29 335.457 2181.42 270.231 2220.61 266.936Z" stroke="#0D0D0D"/>
<path fill-rule="evenodd" clip-rule="evenodd" d="M2218.67 301.329C2248.83 298.794 2260.83 342.605 2283.38 362.783C2300.83 378.392 2327.48 385.228 2336.56 406.803C2345.56 428.157 2329.06 451.75 2330.59 474.87C2332.28 500.271 2357.88 525.868 2345.94 548.352C2334.14 570.592 2301.86 572.029 2276.97 575.86C2257.25 578.896 2238.29 571.561 2218.67 567.947C2202.5 564.969 2187.95 557.897 2171.57 556.45C2140.25 553.681 2100.03 578.828 2078.86 555.589C2059.95 534.839 2097.65 502.94 2097.23 474.87C2096.81 446.15 2061.37 417.208 2076.45 392.759C2091.71 368.002 2135.48 388.887 2159.95 373.159C2186.41 356.146 2187.32 303.965 2218.67 301.329Z" stroke="#0D0D0D"/>
<path fill-rule="evenodd" clip-rule="evenodd" d="M2217.12 328.844C2241.24 326.816 2250.84 361.864 2268.89 378.007C2282.85 390.494 2304.16 395.963 2311.43 413.223C2318.63 430.306 2305.43 449.18 2306.66 467.676C2308 487.997 2328.49 508.475 2318.94 526.462C2309.49 544.254 2283.67 545.403 2263.76 548.468C2247.99 550.897 2232.82 545.029 2217.12 542.138C2204.18 539.756 2192.54 534.098 2179.44 532.94C2154.38 530.725 2122.21 550.843 2105.27 532.251C2090.14 515.651 2120.3 490.132 2119.97 467.676C2119.63 444.7 2091.28 421.546 2103.34 401.987C2115.55 382.182 2150.57 398.89 2170.14 386.308C2191.31 372.697 2192.04 330.952 2217.12 328.844Z" stroke="#0D0D0D"/>
<path fill-rule="evenodd" clip-rule="evenodd" d="M2215.88 350.855C2235.18 349.233 2242.86 377.271 2257.29 390.185C2268.46 400.175 2285.51 404.55 2291.33 418.358C2297.08 432.025 2286.53 447.124 2287.51 461.921C2288.58 478.178 2304.97 494.56 2297.33 508.95C2289.77 523.183 2269.12 524.103 2253.19 526.555C2240.57 528.498 2228.43 523.803 2215.88 521.49C2205.53 519.585 2196.21 515.058 2185.73 514.132C2165.69 512.36 2139.95 528.455 2126.4 513.581C2114.3 500.301 2138.42 479.886 2138.16 461.921C2137.88 443.54 2115.21 425.017 2124.85 409.37C2134.62 393.526 2162.64 406.892 2178.29 396.826C2195.23 385.938 2195.81 352.542 2215.88 350.855Z" stroke="#0D0D0D"/>
<path fill-rule="evenodd" clip-rule="evenodd" d="M2214.88 368.464C2230.32 367.166 2236.47 389.597 2248.02 399.929C2256.95 407.921 2270.59 411.421 2275.24 422.467C2279.85 433.4 2271.4 445.48 2272.19 457.317C2273.05 470.322 2286.16 483.428 2280.05 494.94C2274 506.327 2257.48 507.062 2244.74 509.024C2234.64 510.579 2224.93 506.823 2214.88 504.973C2206.6 503.448 2199.15 499.827 2190.77 499.086C2174.73 497.669 2154.14 510.544 2143.3 498.645C2133.62 488.021 2152.92 471.689 2152.71 457.317C2152.49 442.613 2134.35 427.794 2142.07 415.276C2149.88 402.601 2172.29 413.294 2184.82 405.241C2198.37 396.53 2198.83 369.814 2214.88 368.464Z" stroke="#0D0D0D"/>
<path fill-rule="evenodd" clip-rule="evenodd" d="M2214.09 382.552C2226.44 381.513 2231.36 399.458 2240.59 407.723C2247.74 414.117 2258.66 416.917 2262.38 425.754C2266.06 434.5 2259.3 444.164 2259.93 453.634C2260.62 464.038 2271.11 474.523 2266.22 483.732C2261.38 492.842 2248.16 493.43 2237.97 494.999C2229.89 496.243 2222.13 493.238 2214.09 491.758C2207.46 490.539 2201.5 487.642 2194.8 487.049C2181.97 485.915 2165.5 496.215 2156.82 486.697C2149.08 478.197 2164.52 465.131 2164.35 453.634C2164.17 441.87 2149.66 430.016 2155.83 420.001C2162.09 409.861 2180.01 418.416 2190.03 411.973C2200.88 405.004 2201.25 383.631 2214.09 382.552Z" stroke="#0D0D0D"/>
<path fill-rule="evenodd" clip-rule="evenodd" d="M2213.45 393.822C2223.33 392.991 2227.27 407.347 2234.66 413.959C2240.38 419.074 2249.11 421.314 2252.08 428.383C2255.03 435.381 2249.63 443.111 2250.13 450.687C2250.68 459.011 2259.07 467.399 2255.16 474.766C2251.29 482.054 2240.71 482.524 2232.56 483.78C2226.1 484.775 2219.88 482.371 2213.45 481.187C2208.15 480.211 2203.39 477.894 2198.02 477.419C2187.76 476.512 2174.58 484.753 2167.64 477.138C2161.44 470.338 2173.8 459.885 2173.66 450.687C2173.52 441.277 2161.91 431.793 2166.85 423.781C2171.85 415.669 2186.19 422.513 2194.21 417.359C2202.88 411.784 2203.18 394.685 2213.45 393.822Z" stroke="#0D0D0D"/>
<circle cx="327.5" cy="39.5" r="17.5" fill="#DA5077"/>
<circle cx="682" cy="521" r="11" stroke="#CFA3F3" stroke-width="8"/>
<circle cx="2157" cy="34" r="11" stroke="#7AB0DE" stroke-width="8"/>
<circle cx="2023.5" cy="565.5" r="8.5" fill="#9AAFE2"/>
<circle cx="1730.5" cy="71.5" r="8.5" fill="#DA5077"/>
<circle cx="640.5" cy="346.5" r="8.5" fill="#6B9BA5"/>
<circle cx="1800" cy="444" r="20" fill="#CFA3F3"/>
<path d="M502.196 92.0448L517.625 51.9929L544.597 85.3806L502.196 92.0448Z" stroke="#FFC365" stroke-width="8"/>
<path d="M2070.55 269.575L2098.35 303.992L2054.64 310.862L2070.55 269.575Z" fill="#9AAFE2"/>
<path d="M1945.2 130.045L1960.62 89.9927L1987.6 123.38L1945.2 130.045Z" stroke="#FFC365" stroke-width="8"/>
<path d="M371.905 287.639L410.699 311.051L371.027 332.942L371.905 287.639Z" fill="#9AAFE2"/>
<path d="M754 75.587L774.537 94.959" stroke="#DA5077" stroke-width="8" stroke-linecap="round"/>
<path d="M774.106 75L754.734 95.5372" stroke="#DA5077" stroke-width="8" stroke-linecap="round"/>
<path d="M2172.93 624L2154.07 645.002" stroke="#FFC365" stroke-width="8" stroke-linecap="round"/>
<path d="M2174.01 644.087L2153.01 625.219" stroke="#FFC365" stroke-width="8" stroke-linecap="round"/>
<path d="M1959.65 377L1960.57 405.217" stroke="#DA5077" stroke-width="8" stroke-linecap="round"/>
<path d="M1974.33 390.752L1946.11 391.673" stroke="#DA5077" stroke-width="8" stroke-linecap="round"/>
<path d="M397.788 517.006L415.336 539.122" stroke="#FFC365" stroke-width="8" stroke-linecap="round"/>
<path d="M417.771 519.308L395.655 536.856" stroke="#FFC365" stroke-width="8" stroke-linecap="round"/>
<defs>
<filter id="filter0_f_470_1000" x="122" y="210" width="273" height="273" filterUnits="userSpaceOnUse" color-interpolation-filters="sRGB">
<feFlood flood-opacity="0" result="BackgroundImageFix"/>
<feBlend mode="normal" in="SourceGraphic" in2="BackgroundImageFix" result="shape"/>
<feGaussianBlur stdDeviation="30" result="effect1_foregroundBlur_470_1000"/>
</filter>
<filter id="filter1_f_470_1000" x="256" y="255" width="273" height="273" filterUnits="userSpaceOnUse" color-interpolation-filters="sRGB">
<feFlood flood-opacity="0" result="BackgroundImageFix"/>
<feBlend mode="normal" in="SourceGraphic" in2="BackgroundImageFix" result="shape"/>
<feGaussianBlur stdDeviation="30" result="effect1_foregroundBlur_470_1000"/>
</filter>
<filter id="filter2_f_470_1000" x="2062" y="379" width="273" height="273" filterUnits="userSpaceOnUse" color-interpolation-filters="sRGB">
<feFlood flood-opacity="0" result="BackgroundImageFix"/>
<feBlend mode="normal" in="SourceGraphic" in2="BackgroundImageFix" result="shape"/>
<feGaussianBlur stdDeviation="30" result="effect1_foregroundBlur_470_1000"/>
</filter>
<filter id="filter3_f_470_1000" x="2094" y="257" width="273" height="273" filterUnits="userSpaceOnUse" color-interpolation-filters="sRGB">
<feFlood flood-opacity="0" result="BackgroundImageFix"/>
<feBlend mode="normal" in="SourceGraphic" in2="BackgroundImageFix" result="shape"/>
<feGaussianBlur stdDeviation="30" result="effect1_foregroundBlur_470_1000"/>
</filter>
</defs>
</svg>
