<svg width="44" height="44" viewBox="0 0 44 44" fill="none" xmlns="http://www.w3.org/2000/svg">
<path d="M40.3334 33.0091C40.3334 34.0175 39.5157 34.8333 38.5092 34.8333L5.49086 34.3494C5.00706 34.3494 4.54307 34.1572 4.20098 33.8151C3.85888 33.473 3.66669 33.009 3.66669 32.5252C3.66669 32.0414 3.85888 31.5774 4.20098 31.2353C4.54307 30.8932 5.00706 30.701 5.49086 30.701L38.5092 31.185C39.5175 31.185 40.3334 32.0008 40.3334 33.0091ZM40.3334 22C40.3334 23.0083 39.5157 23.8241 38.5092 23.8241H5.49086C5.00707 23.8241 4.54308 23.632 4.20098 23.2899C3.85889 22.9478 3.6667 22.4838 3.6667 22C3.6667 21.5162 3.85889 21.0522 4.20098 20.7101C4.54308 20.368 5.00707 20.1758 5.49086 20.1758H38.5092C39.5175 20.1758 40.3334 20.9935 40.3334 22ZM38.5092 12.815C38.993 12.815 39.457 12.6228 39.7991 12.2807C40.1412 11.9386 40.3334 11.4746 40.3334 10.9908C40.3334 10.507 40.1412 10.043 39.7991 9.70093C39.457 9.35883 38.993 9.16664 38.5092 9.16664L5.44362 8.94531C5.20406 8.94531 4.96686 8.9925 4.74554 9.08417C4.52422 9.17584 4.32312 9.31021 4.15374 9.4796C3.98435 9.64899 3.84998 9.85008 3.75831 10.0714C3.66663 10.2927 3.61945 10.5299 3.61945 10.7695C3.61945 11.009 3.66663 11.2462 3.75831 11.4676C3.84998 11.6889 3.98435 11.89 4.15374 12.0594C4.32312 12.2287 4.52422 12.3631 4.74554 12.4548C4.96686 12.5465 5.20406 12.5936 5.44362 12.5936L38.5092 12.815Z" fill="#0D0D0D"/>
</svg>
