<svg width="61" height="61" viewBox="0 0 61 61" fill="none" xmlns="http://www.w3.org/2000/svg">
<path d="M24.1366 0.262701C17.8678 0.262701 11.8558 2.75297 7.42306 7.18567C2.99038 11.6184 0.500118 17.6304 0.500118 23.8992C0.485356 28.5518 1.86033 33.1027 4.4488 36.9688L1.29058 45.4204C0.941714 46.3538 1.74174 47.3121 2.72262 47.136L13.7921 45.144C16.9888 46.7031 20.496 47.5204 24.0525 47.5354C27.6089 47.5504 31.1229 46.7627 34.3326 45.231C37.5423 43.6993 40.365 41.4627 42.5903 38.6884C44.8156 35.9141 46.3859 32.6734 47.1848 29.2078C47.9836 25.7422 47.99 22.141 47.2036 18.6725C46.4172 15.2041 44.858 11.9578 42.6428 9.17561C40.4274 6.39341 37.6127 4.14701 34.4085 2.6038C31.2042 1.06058 27.6931 0.260342 24.1366 0.262701Z" fill="#2859C5"/>
<path d="M41.2155 21.6914C46.3302 21.6914 51.2356 23.7233 54.8527 27.3401C58.4695 30.9568 60.5013 35.8623 60.5013 40.9771C60.5133 44.7734 59.3913 48.4866 57.2793 51.6408L59.7106 58.1474C60.0594 59.0813 59.2597 60.0396 58.2787 59.863L49.6559 58.3116C47.0476 59.5835 44.186 60.2504 41.2841 60.2628C38.3823 60.2748 35.5151 59.632 32.8962 58.3823C30.2773 57.1326 27.9742 55.3077 26.1585 53.044C24.3429 50.7807 23.0614 48.1364 22.4097 45.3087C21.7579 42.4809 21.7528 39.5426 22.3944 36.7125C23.0361 33.8825 24.3081 31.2338 26.1157 28.9637C27.9233 26.6937 30.2199 24.8607 32.8343 23.6016C35.4488 22.3424 38.3137 21.6895 41.2155 21.6914Z" fill="#2859C5"/>
<path d="M41.2155 21.6914C46.3302 21.6914 51.2356 23.7233 54.8527 27.3401C58.4695 30.9568 60.5013 35.8623 60.5013 40.9771C60.5133 44.7734 59.3913 48.4866 57.2793 51.6408L59.7106 58.1474C60.0594 59.0813 59.2597 60.0396 58.2787 59.863L49.6559 58.3116C47.0476 59.5835 44.186 60.2504 41.2841 60.2628C38.3823 60.2748 35.5151 59.632 32.8962 58.3823C30.2773 57.1326 27.9742 55.3077 26.1585 53.044C24.3429 50.7807 23.0614 48.1364 22.4097 45.3087C21.7579 42.4809 21.7528 39.5426 22.3944 36.7125C23.0361 33.8825 24.3081 31.2338 26.1157 28.9637C27.9233 26.6937 30.2199 24.8607 32.8343 23.6016C35.4488 22.3424 38.3137 21.6895 41.2155 21.6914Z" fill="white" fill-opacity="0.35"/>
</svg>
