<svg width="14" height="12" viewBox="0 0 14 12" fill="none" xmlns="http://www.w3.org/2000/svg">
<path fill-rule="evenodd" clip-rule="evenodd" d="M0 1.75C0 0.92157 0.671573 0.25 1.5 0.25H12.5C13.3284 0.25 14 0.92157 14 1.75V2.09195L7.3834 6.5038C7.29008 6.5638 7.15462 6.60663 6.99999 6.60663C6.84537 6.60663 6.70991 6.5638 6.61659 6.5038L0 2.09196V1.75ZM0 3.59435V10.25C0 11.0784 0.671573 11.75 1.5 11.75H12.5C13.3284 11.75 14 11.0784 14 10.25V3.59434L8.0734 7.54611L8.06764 7.54995C7.75299 7.75476 7.37513 7.85663 6.99999 7.85663C6.62486 7.85663 6.24702 7.75473 5.93237 7.54992L5.92657 7.54614L0 3.59435Z" fill="black"/>
</svg>
