<svg width="14" height="14" viewBox="0 0 14 14" fill="none" xmlns="http://www.w3.org/2000/svg">
<g clip-path="url(#clip0_651_821)">
<path d="M5.16951 13.2408C4.52896 13.6541 3.76565 13.8342 3.00793 13.7508C2.25021 13.6675 1.54429 13.3258 1.00888 12.7832L0.540808 12.3255C0.335601 12.1156 0.220703 11.8337 0.220703 11.5402C0.220703 11.2466 0.335601 10.9647 0.540808 10.7548L2.52751 8.78897C2.73565 8.58441 3.0158 8.46979 3.30763 8.46979C3.59946 8.46979 3.87961 8.58441 4.08775 8.78897C4.29765 8.99417 4.57953 9.10907 4.87307 9.10907C5.16661 9.10907 5.44849 8.99417 5.65839 8.78897L8.77886 5.66849C8.88296 5.56591 8.96562 5.44365 9.02205 5.30883C9.07847 5.17401 9.10752 5.02932 9.10752 4.88317C9.10752 4.73702 9.07847 4.59233 9.02205 4.45751C8.96562 4.32269 8.88296 4.20044 8.77886 4.09785C8.57431 3.88971 8.45969 3.60956 8.45969 3.31773C8.45969 3.02591 8.57431 2.74575 8.77886 2.53761L10.7551 0.561316C10.965 0.356109 11.2469 0.241211 11.5405 0.241211C11.834 0.241211 12.1159 0.356109 12.3258 0.561316L12.7834 1.02939C13.326 1.5648 13.6677 2.27071 13.7511 3.02843C13.8344 3.78615 13.6544 4.54946 13.2411 5.19002C11.0879 8.36326 8.3483 11.0958 5.16951 13.2408Z" fill="black"/>
</g>
<defs>
<clipPath id="clip0_651_821">
<rect width="14" height="14" fill="white"/>
</clipPath>
</defs>
</svg>
