<svg width="60" height="60" viewBox="0 0 60 60" fill="none" xmlns="http://www.w3.org/2000/svg">
<g id="google--media-google-social">
<g id="google--media-google-social_2">
<g id="Vector">
<path d="M50.1464 24.5784H32.3561C32.0427 24.5784 31.7324 24.6408 31.4434 24.762C31.1545 24.8833 30.8926 25.0609 30.6731 25.2845C30.4537 25.5081 30.2811 25.7733 30.1654 26.0644C30.0497 26.3555 29.9933 26.6667 29.9995 26.9799V33.4915C29.9995 34.1162 30.2477 34.7153 30.6897 35.157C31.1316 35.5987 31.7311 35.8468 32.3561 35.8468H44.6016C44.635 37.6318 44.2913 39.4038 43.5936 41.0472C42.8954 42.6906 41.8585 44.1686 40.5504 45.3844C39.2423 46.5999 37.6924 47.5264 36.0019 48.1033C34.3113 48.6801 32.518 48.8944 30.7391 48.7316C20.3885 48.7316 15.398 39.957 15.398 29.9817C15.398 20.0064 20.7582 11.2318 30.7391 11.2318C35.1455 11.0857 39.4633 12.4914 42.9383 15.2035C43.216 15.3852 43.5301 15.5036 43.8589 15.5504C44.1871 15.5971 44.5223 15.5711 44.8398 15.4742C45.157 15.3773 45.4493 15.2118 45.6957 14.9894C45.9421 14.767 46.1363 14.4933 46.2653 14.1875L49.1761 7.53729C49.4157 7.04713 49.4774 6.48909 49.351 5.95847C49.2246 5.42786 48.9177 4.95754 48.4831 4.6278C43.1843 1.46111 37.096 -0.140144 30.924 0.00962176C14.1042 -0.0365602 2.64453 13.0329 2.64453 29.9817C2.64453 46.9307 14.1504 60 30.7391 60C47.3277 60 57.355 48.1774 57.355 32.2908C57.355 27.2108 55.3219 24.5784 50.1464 24.5784Z" fill="#FFC365"/>
<path d="M50.1464 24.5784H32.3561C32.0427 24.5784 31.7324 24.6408 31.4434 24.762C31.1545 24.8833 30.8926 25.0609 30.6731 25.2845C30.4537 25.5081 30.2811 25.7733 30.1654 26.0644C30.0497 26.3555 29.9933 26.6667 29.9995 26.9799V33.4915C29.9995 34.1162 30.2477 34.7153 30.6897 35.157C31.1316 35.5987 31.7311 35.8468 32.3561 35.8468H44.6016C44.635 37.6318 44.2913 39.4038 43.5936 41.0472C42.8954 42.6906 41.8585 44.1686 40.5504 45.3844C39.2423 46.5999 37.6924 47.5264 36.0019 48.1033C34.3113 48.6801 32.518 48.8944 30.7391 48.7316C20.3885 48.7316 15.398 39.957 15.398 29.9817C15.398 20.0064 20.7582 11.2318 30.7391 11.2318C35.1455 11.0857 39.4633 12.4914 42.9383 15.2035C43.216 15.3852 43.5301 15.5036 43.8589 15.5504C44.1871 15.5971 44.5223 15.5711 44.8398 15.4742C45.157 15.3773 45.4493 15.2118 45.6957 14.9894C45.9421 14.767 46.1363 14.4933 46.2653 14.1875L49.1761 7.53729C49.4157 7.04713 49.4774 6.48909 49.351 5.95847C49.2246 5.42786 48.9177 4.95754 48.4831 4.6278C43.1843 1.46111 37.096 -0.140144 30.924 0.00962176C14.1042 -0.0365602 2.64453 13.0329 2.64453 29.9817C2.64453 46.9307 14.1504 60 30.7391 60C47.3277 60 57.355 48.1774 57.355 32.2908C57.355 27.2108 55.3219 24.5784 50.1464 24.5784Z" fill="white" fill-opacity="0.4"/>
</g>
</g>
</g>
</svg>
