<svg width="60" height="60" viewBox="0 0 60 60" fill="none" xmlns="http://www.w3.org/2000/svg">
<g id="graduation-cap--graduation-cap-education">
<g id="graduation-cap--graduation-cap-education_2">
<g id="Union">
<path d="M12.646 30.0009L12.6675 40.7866C12.6685 41.2513 12.8205 41.7032 13.1007 42.074L14.8102 40.7822C13.1007 42.074 13.1007 42.074 13.1007 42.074L13.1037 42.078L13.1072 42.0825L13.1154 42.0933L13.1372 42.1214L13.2024 42.2028C13.2554 42.268 13.3278 42.3545 13.4199 42.4592C13.604 42.6684 13.8675 42.9509 14.2134 43.2817C14.9047 43.943 15.9291 44.8006 17.3108 45.6505C20.0881 47.3592 24.2699 49.0113 29.9991 49.0113C35.728 49.0113 39.9151 47.3592 42.6975 45.6517C44.0818 44.8023 45.1091 43.9452 45.8025 43.2847C46.1492 42.9539 46.4137 42.6718 46.5984 42.4628C46.6909 42.3583 46.7634 42.2719 46.8165 42.2069L46.8821 42.1256L46.9039 42.0976L46.9121 42.0868L46.9155 42.0823C46.9155 42.0823 46.9185 42.0784 45.2124 40.7821L46.9185 42.0783C47.2018 41.7054 47.3552 41.25 47.3552 40.7817L47.3531 29.9999L32.98 36.2274C31.0776 37.0516 28.9189 37.0516 27.0165 36.2274L12.646 30.0009Z" fill="#93C51D"/>
<path d="M12.646 30.0009L12.6675 40.7866C12.6685 41.2513 12.8205 41.7032 13.1007 42.074L14.8102 40.7822C13.1007 42.074 13.1007 42.074 13.1007 42.074L13.1037 42.078L13.1072 42.0825L13.1154 42.0933L13.1372 42.1214L13.2024 42.2028C13.2554 42.268 13.3278 42.3545 13.4199 42.4592C13.604 42.6684 13.8675 42.9509 14.2134 43.2817C14.9047 43.943 15.9291 44.8006 17.3108 45.6505C20.0881 47.3592 24.2699 49.0113 29.9991 49.0113C35.728 49.0113 39.9151 47.3592 42.6975 45.6517C44.0818 44.8023 45.1091 43.9452 45.8025 43.2847C46.1492 42.9539 46.4137 42.6718 46.5984 42.4628C46.6909 42.3583 46.7634 42.2719 46.8165 42.2069L46.8821 42.1256L46.9039 42.0976L46.9121 42.0868L46.9155 42.0823C46.9155 42.0823 46.9185 42.0784 45.2124 40.7821L46.9185 42.0783C47.2018 41.7054 47.3552 41.25 47.3552 40.7817L47.3531 29.9999L32.98 36.2274C31.0776 37.0516 28.9189 37.0516 27.0165 36.2274L12.646 30.0009Z" fill="white" fill-opacity="0.35"/>
</g>
<path id="Ellipse 347 (Stroke)" fill-rule="evenodd" clip-rule="evenodd" d="M7.26542 17.4399C8.44887 17.4399 9.40827 18.6392 9.40827 20.1185V49.6499C9.40827 51.1293 8.44887 52.3284 7.26542 52.3284C6.08196 52.3284 5.12256 51.1293 5.12256 49.6499V20.1185C5.12256 18.6392 6.08196 17.4399 7.26542 17.4399Z" fill="#93C51D"/>
<g id="Union_2">
<path fill-rule="evenodd" clip-rule="evenodd" d="M7.26829 47.1344C4.33472 47.1344 1.95654 49.5125 1.95654 52.4461C1.95654 55.3797 4.33472 57.7578 7.26829 57.7578C10.2019 57.7578 12.58 55.3797 12.58 52.4461C12.58 49.5125 10.2019 47.1344 7.26829 47.1344Z" fill="#93C51D"/>
<path fill-rule="evenodd" clip-rule="evenodd" d="M7.26829 47.1344C4.33472 47.1344 1.95654 49.5125 1.95654 52.4461C1.95654 55.3797 4.33472 57.7578 7.26829 57.7578C10.2019 57.7578 12.58 55.3797 12.58 52.4461C12.58 49.5125 10.2019 47.1344 7.26829 47.1344Z" fill="white" fill-opacity="0.35"/>
</g>
<g id="Union_3">
<path fill-rule="evenodd" clip-rule="evenodd" d="M30.8519 3.82201C30.3084 3.58651 29.6916 3.58651 29.1481 3.82201L1.29094 15.8918C0.507223 16.2313 0 17.0039 0 17.858C0 18.7121 0.507223 19.4847 1.29094 19.8243L29.1481 31.894C29.6916 32.1295 30.3084 32.1295 30.8519 31.894L58.7091 19.8243C59.4926 19.4847 60 18.7121 60 17.858C60 17.0039 59.4926 16.2313 58.7091 15.8918L30.8519 3.82201Z" fill="#93C51D"/>
<path fill-rule="evenodd" clip-rule="evenodd" d="M30.8519 3.82201C30.3084 3.58651 29.6916 3.58651 29.1481 3.82201L1.29094 15.8918C0.507223 16.2313 0 17.0039 0 17.858C0 18.7121 0.507223 19.4847 1.29094 19.8243L29.1481 31.894C29.6916 32.1295 30.3084 32.1295 30.8519 31.894L58.7091 19.8243C59.4926 19.4847 60 18.7121 60 17.858C60 17.0039 59.4926 16.2313 58.7091 15.8918L30.8519 3.82201Z" fill="white" fill-opacity="0.35"/>
</g>
<path id="Subtract" fill-rule="evenodd" clip-rule="evenodd" d="M12.646 24.7435L29.1483 31.8935C29.6918 32.129 30.3086 32.129 30.8521 31.8935L47.3552 24.7432V39.5116L47.3531 29.9993L32.98 36.2268C31.0776 37.051 28.9189 37.051 27.0165 36.2268L12.646 30.0004V24.7435ZM12.646 30.0004L12.6649 39.5116H12.646V30.0004Z" fill="#93C51D"/>
</g>
</g>
</svg>
