<svg width="60" height="60" viewBox="0 0 60 60" fill="none" xmlns="http://www.w3.org/2000/svg">
<g id="hand-held-tablet-drawing--tablet-kindle-device-electronics-ipad-digital-drawing-canvas">
<g id="hand-held-tablet-drawing--tablet-kindle-device-electronics-ipad-digital-drawing-canvas_2">
<g id="Union">
<path fill-rule="evenodd" clip-rule="evenodd" d="M12.3746 0.401794C8.32907 0.401794 5.24365 3.76734 5.24365 7.67517V52.3247C5.24365 56.2329 8.32907 59.598 12.3746 59.598H47.6246C51.6703 59.598 54.7556 56.2329 54.7556 52.3247V7.90179C54.7556 3.75966 51.3978 0.401794 47.2556 0.401794H12.3746Z" fill="#DA5077"/>
<path fill-rule="evenodd" clip-rule="evenodd" d="M12.3746 0.401794C8.32907 0.401794 5.24365 3.76734 5.24365 7.67517V52.3247C5.24365 56.2329 8.32907 59.598 12.3746 59.598H47.6246C51.6703 59.598 54.7556 56.2329 54.7556 52.3247V7.90179C54.7556 3.75966 51.3978 0.401794 47.2556 0.401794H12.3746Z" fill="white" fill-opacity="0.4"/>
</g>
<path id="Union_2" fill-rule="evenodd" clip-rule="evenodd" d="M8.45807 43.9286H5.24365L5.24378 47.1429L5.24404 52.3247C5.24412 56.2324 8.3295 59.598 12.375 59.598H47.625C51.6708 59.598 54.756 56.2329 54.756 52.3247L54.7556 47.1429V43.9286H51.5413H8.45807Z" fill="#DA5077"/>
<path id="Vector 1498 (Stroke)" fill-rule="evenodd" clip-rule="evenodd" d="M23.4944 15.0648C22.2437 15.7424 20.8841 17.1118 19.8914 18.5152C19.0371 19.7229 17.3655 20.0094 16.1578 19.1551C14.9501 18.3008 14.6636 16.6292 15.5179 15.4214C16.7768 13.6418 18.7064 11.5659 20.9426 10.3545C22.078 9.7394 23.4528 9.26073 24.9494 9.31327C26.5229 9.36852 27.9993 10.0058 29.2195 11.2259C31.3332 13.3397 30.8468 16.1149 30.2284 17.9116C29.6091 19.7106 28.4865 21.6425 27.5451 23.2627C27.5038 23.3339 27.4628 23.4044 27.4222 23.4743C26.3591 25.3055 25.5605 26.7248 25.2261 27.8237C25.1887 27.9465 25.1621 28.0505 25.1432 28.1373C25.3558 28.0722 25.6886 27.9224 26.1574 27.6075C27.365 26.7961 28.7192 25.4265 30.3281 23.7668C30.3903 23.7026 30.4529 23.6378 30.5161 23.5727C31.9561 22.086 33.6265 20.3614 35.2717 19.2252C36.9088 18.0946 39.6226 16.8161 42.2804 18.5879C43.2555 19.2379 44.0291 20.1092 44.4388 21.2263C44.8387 22.3171 44.7941 23.3786 44.6141 24.2567C44.3235 25.6712 43.5384 27.1371 42.9748 28.1886C42.9071 28.3152 42.8423 28.4357 42.7822 28.5495C42.0826 29.8728 41.7452 30.665 41.6975 31.2296C41.6807 31.4283 41.7123 31.5023 41.731 31.54C41.7544 31.587 41.8617 31.7779 42.2804 32.057C43.5114 32.8776 43.844 34.5407 43.0232 35.7716C42.2027 37.0025 40.5397 37.335 39.3088 36.5144C38.2844 35.8315 37.458 34.979 36.9338 33.9245C36.4049 32.8605 36.2751 31.7745 36.3594 30.7779C36.5139 28.9518 37.4295 27.2121 38.0462 26.0456C38.0829 25.9762 38.1189 25.9082 38.1541 25.8416C38.8441 24.5375 39.2419 23.7855 39.3662 23.1797C39.3728 23.1475 39.3776 23.1199 39.3811 23.0965C39.3768 23.0933 39.3723 23.0899 39.3676 23.0864C39.2055 23.123 38.865 23.2541 38.316 23.6333C37.1318 24.4511 35.7946 25.8242 34.1747 27.4953L34.1266 27.545C32.6443 29.0743 30.8968 30.8772 29.1449 32.0542C27.4232 33.211 24.7269 34.3859 22.0523 32.7056C20.8608 31.9571 20.1019 30.848 19.8417 29.5359C19.6062 28.3484 19.8177 27.1952 20.101 26.2641C20.6443 24.4787 21.7852 22.5137 22.7344 20.879C22.7528 20.8475 22.771 20.816 22.7892 20.7847C23.8471 18.9624 24.7241 17.4425 25.163 16.1679C25.3757 15.5498 25.4117 15.1856 25.4012 15.0114C25.4005 15 25.3996 14.9903 25.3988 14.982C25.1154 14.7101 24.9191 14.6726 24.7614 14.6671C24.5206 14.6587 24.1025 14.7354 23.4944 15.0648ZM24.9055 28.1727C24.9052 28.1723 24.9059 28.1731 24.9055 28.1727Z" fill="#DA5077"/>
</g>
</g>
</svg>
