<svg width="65" height="65" viewBox="0 0 65 65" fill="none" xmlns="http://www.w3.org/2000/svg">
<path d="M32.5 0.262695C24.015 0.262695 15.87 3.6362 9.875 9.6352C3.87386 15.6366 0.501717 23.7756 0.5 32.2627C0.5 40.7462 3.875 48.8912 9.875 54.8902C15.87 60.8892 24.015 64.2627 32.5 64.2627C40.985 64.2627 49.13 60.8892 55.125 54.8902C61.125 48.8912 64.5 40.7462 64.5 32.2627C64.5 23.7792 61.125 15.6342 55.125 9.6352C49.13 3.6362 40.985 0.262695 32.5 0.262695Z" fill="#229ED9"/>
<g clip-path="url(#clip0_475_1058)">
<path d="M47.4963 17.5456L14.716 30.2518C13.3969 30.8435 12.9507 32.0284 14.3972 32.6715L22.8067 35.3579L43.14 22.7265C44.2502 21.9336 45.3868 22.145 44.4087 23.0173L26.9453 38.9111L26.3967 45.6373C26.9048 46.6758 27.8351 46.6807 28.4286 46.1645L33.2601 41.5692L41.5349 47.7975C43.4568 48.9412 44.5025 48.2031 44.9161 46.1069L50.3436 20.2741C50.9071 17.6939 49.9461 16.557 47.4963 17.5456Z" fill="white"/>
</g>
<defs>
<clipPath id="clip0_475_1058">
<rect width="37" height="37" fill="white" transform="translate(13.5 14.2627)"/>
</clipPath>
</defs>
</svg>
