<svg width="65" height="65" viewBox="0 0 65 65" fill="none" xmlns="http://www.w3.org/2000/svg">
<g id="Frame 14260">
<circle id="Ellipse 289" cx="32.5" cy="32.2627" r="32" fill="#E820B6"/>
<path id="Vector" d="M32.3345 14.2629C27.3103 14.2629 26.6796 14.285 24.7065 14.3747C22.737 14.465 21.3926 14.7767 20.2164 15.2342C18.9995 15.7067 17.9673 16.3388 16.9391 17.3674C15.91 18.3958 15.2778 19.4279 14.8039 20.6443C14.3451 21.8209 14.033 23.1658 13.9444 25.1344C13.8561 27.1077 13.833 27.7386 13.833 32.7629C13.833 37.7873 13.8552 38.4159 13.9447 40.3891C14.0354 42.3586 14.3471 43.703 14.8042 44.8792C15.2771 46.0961 15.9092 47.1282 16.9378 48.1565C17.9659 49.1856 18.998 49.8192 20.214 50.2917C21.3911 50.7492 22.7357 51.0609 24.7048 51.1512C26.6782 51.2409 27.3083 51.2629 32.3323 51.2629C37.357 51.2629 37.9856 51.2409 39.9588 51.1512C41.9283 51.0609 43.2742 50.7492 44.4513 50.2917C45.6677 49.8192 46.6983 49.1856 47.7261 48.1565C48.7553 47.1282 49.3872 46.0961 49.8614 44.8798C50.3161 43.703 50.6284 42.3582 50.7209 40.3895C50.8095 38.4163 50.8326 37.7873 50.8326 32.7629C50.8326 27.7386 50.8095 27.1081 50.7209 25.1347C50.6284 23.1652 50.3161 21.821 49.8614 20.6448C49.3872 19.4279 48.7553 18.3958 47.7261 17.3674C46.6972 16.3384 45.668 15.7063 44.4502 15.2344C43.2708 14.7767 41.9257 14.4648 39.9562 14.3747C37.9829 14.285 37.3546 14.2629 32.3288 14.2629H32.3345ZM30.6749 17.5968C31.1675 17.5961 31.7171 17.5968 32.3345 17.5968C37.2741 17.5968 37.8595 17.6146 39.8101 17.7032C41.6138 17.7857 42.5928 18.087 43.2449 18.3403C44.1083 18.6755 44.7238 19.0764 45.3709 19.7241C46.0184 20.3716 46.4191 20.9882 46.7553 21.8516C47.0085 22.5028 47.3103 23.4818 47.3924 25.2855C47.481 27.2358 47.5003 27.8215 47.5003 32.7587C47.5003 37.6959 47.481 38.2818 47.3924 40.2319C47.3099 42.0356 47.0085 43.0146 46.7553 43.666C46.4201 44.5294 46.0184 45.1441 45.3709 45.7913C44.7234 46.4387 44.1087 46.8395 43.2449 47.1749C42.5936 47.4292 41.6138 47.7298 39.8101 47.8124C37.8598 47.901 37.2741 47.9202 32.3345 47.9202C27.3947 47.9202 26.8091 47.901 24.8591 47.8124C23.0554 47.7291 22.0763 47.4277 21.4237 47.1745C20.5605 46.8391 19.9437 46.4384 19.2962 45.7909C18.6487 45.1434 18.248 44.5283 17.9118 43.6645C17.6586 43.0131 17.3569 42.0341 17.2747 40.2304C17.1861 38.2801 17.1683 37.6944 17.1683 32.7541C17.1683 27.8137 17.1861 27.2311 17.2747 25.2809C17.3572 23.4771 17.6586 22.4981 17.9118 21.846C18.2472 20.9826 18.6487 20.366 19.2964 19.7185C19.9441 19.071 20.5605 18.6702 21.4239 18.3342C22.076 18.0798 23.0554 17.7792 24.8591 17.6963C26.5657 17.6192 27.2271 17.5961 30.6749 17.5922V17.5968ZM42.2097 20.6685C40.9841 20.6685 39.9897 21.6619 39.9897 22.8877C39.9897 24.1134 40.9841 25.1077 42.2097 25.1077C43.4353 25.1077 44.4297 24.1134 44.4297 22.8877C44.4297 21.6621 43.4353 20.6685 42.2097 20.6685ZM32.3345 23.2624C27.0879 23.2624 22.8341 27.5162 22.8341 32.7629C22.8341 38.0097 27.0879 42.2615 32.3345 42.2615C37.5812 42.2615 41.8336 38.0097 41.8336 32.7629C41.8336 27.5164 37.5812 23.2624 32.3345 23.2624ZM32.3345 26.5962C35.7401 26.5962 38.5012 29.3569 38.5012 32.7629C38.5012 36.1686 35.7401 38.9297 32.3345 38.9297C28.9289 38.9297 26.1679 36.1686 26.1679 32.7629C26.1679 29.3569 28.9287 26.5962 32.3345 26.5962Z" fill="white"/>
</g>
</svg>
