<svg width="64" height="65" viewBox="0 0 64 65" fill="none" xmlns="http://www.w3.org/2000/svg">
<circle cx="32" cy="32.2627" r="32" fill="#0A66C2"/>
<g clip-path="url(#clip0_475_1052)">
<path d="M21.9188 26.4903V50.87H13.8004V26.4903H21.9188ZM22.4354 18.9624C22.4518 20.1596 22.0377 21.1601 21.193 21.9637C20.3484 22.7674 19.2373 23.1692 17.8596 23.1692H17.8104C16.4655 23.1692 15.3831 22.7674 14.5631 21.9637C13.743 21.1601 13.333 20.1596 13.333 18.9624C13.333 17.7487 13.7553 16.7442 14.6 15.9488C15.4446 15.1533 16.5475 14.7556 17.9088 14.7556C19.2701 14.7556 20.3607 15.1533 21.1807 15.9488C22.0008 16.7442 22.419 17.7487 22.4354 18.9624ZM51.1202 36.8966V50.87H43.0265V37.8314C43.0265 36.1093 42.6944 34.7604 42.0302 33.7845C41.3659 32.8087 40.3286 32.3208 38.9181 32.3208C37.8849 32.3208 37.0197 32.6037 36.3227 33.1695C35.6257 33.7353 35.105 34.4365 34.7605 35.2729C34.5801 35.7649 34.4899 36.4292 34.4899 37.2656V50.87H26.3962C26.429 44.3261 26.4454 39.0205 26.4454 34.9531C26.4454 30.8857 26.4372 28.4584 26.4208 27.6712L26.3962 26.4903H34.4899V30.0329H34.4407C34.7687 29.5081 35.105 29.0488 35.4494 28.6552C35.7938 28.2616 36.2571 27.8352 36.8393 27.376C37.4216 26.9167 38.135 26.56 38.9796 26.3058C39.8243 26.0516 40.7632 25.9245 41.7964 25.9245C44.601 25.9245 46.8561 26.8552 48.5617 28.7167C50.2674 30.5782 51.1202 33.3048 51.1202 36.8966Z" fill="white"/>
</g>
<defs>
<clipPath id="clip0_475_1052">
<rect width="37.7872" height="37" fill="white" transform="translate(13.333 14.2629)"/>
</clipPath>
</defs>
</svg>
