<svg width="60" height="72" viewBox="0 0 60 72" fill="none" xmlns="http://www.w3.org/2000/svg">
<rect width="60" height="72" rx="20" fill="#C082F2" fill-opacity="0.3"/>
<path d="M29.76 48.32C28.7787 48.32 27.7973 48.2133 26.816 48C25.856 47.7867 24.9493 47.488 24.096 47.104C23.264 46.72 22.5493 46.2613 21.952 45.728L23.296 42.624C24.2987 43.3707 25.3227 43.936 26.368 44.32C27.4347 44.6827 28.544 44.864 29.696 44.864C31.0827 44.864 32.16 44.5227 32.928 43.84C33.7173 43.136 34.112 42.1973 34.112 41.024C34.112 39.8293 33.7387 38.8693 32.992 38.144C32.2453 37.3973 31.2213 37.024 29.92 37.024C29.0027 37.024 28.16 37.2053 27.392 37.568C26.6453 37.9093 25.9733 38.4427 25.376 39.168H22.656V25.44H36.672V28.832H26.56V36H25.568C26.1227 35.2533 26.8587 34.6773 27.776 34.272C28.7147 33.8667 29.76 33.664 30.912 33.664C32.3627 33.664 33.6213 33.9627 34.688 34.56C35.7547 35.1573 36.5867 36 37.184 37.088C37.7813 38.1547 38.08 39.4133 38.08 40.864C38.08 42.336 37.7387 43.6373 37.056 44.768C36.3947 45.8773 35.4347 46.752 34.176 47.392C32.9387 48.0107 31.4667 48.32 29.76 48.32Z" fill="#0D0D0D"/>
</svg>
