<svg width="60" height="72" viewBox="0 0 60 72" fill="none" xmlns="http://www.w3.org/2000/svg">
<rect width="60" height="72" rx="20" fill="#84A0E5" fill-opacity="0.3"/>
<path d="M29.248 48.32C27.6907 48.32 26.1973 48.096 24.768 47.648C23.3387 47.1787 22.1653 46.5387 21.248 45.728L22.592 42.624C23.5947 43.392 24.6293 43.9573 25.696 44.32C26.784 44.6827 27.9253 44.864 29.12 44.864C30.5707 44.864 31.6693 44.576 32.416 44C33.1627 43.424 33.536 42.5813 33.536 41.472C33.536 40.4053 33.1627 39.6053 32.416 39.072C31.6907 38.5173 30.624 38.24 29.216 38.24H25.568V34.944H28.864C30.08 34.944 31.0507 34.6453 31.776 34.048C32.5013 33.4507 32.864 32.6293 32.864 31.584C32.864 30.6027 32.5227 29.856 31.84 29.344C31.1787 28.832 30.2187 28.576 28.96 28.576C26.6987 28.576 24.704 29.344 22.976 30.88L21.632 27.808C22.5493 26.9547 23.68 26.2933 25.024 25.824C26.3893 25.3547 27.8187 25.12 29.312 25.12C31.6587 25.12 33.4933 25.6533 34.816 26.72C36.16 27.7653 36.832 29.2267 36.832 31.104C36.832 32.448 36.448 33.6107 35.68 34.592C34.9333 35.552 33.8987 36.192 32.576 36.512V36.128C34.1333 36.384 35.3387 37.024 36.192 38.048C37.0667 39.0507 37.504 40.3093 37.504 41.824C37.504 43.8293 36.768 45.4187 35.296 46.592C33.824 47.744 31.808 48.32 29.248 48.32Z" fill="#0D0D0D"/>
</svg>
