<svg width="60" height="72" viewBox="0 0 60 72" fill="none" xmlns="http://www.w3.org/2000/svg">
<rect width="60" height="72" rx="20" fill="#DA5077" fill-opacity="0.3"/>
<path d="M22.496 48V44.96L29.984 37.152C30.9227 36.1707 31.616 35.264 32.064 34.432C32.512 33.6 32.736 32.7467 32.736 31.872C32.736 30.784 32.3947 29.9627 31.712 29.408C31.0293 28.8533 30.0373 28.576 28.736 28.576C27.6907 28.576 26.688 28.768 25.728 29.152C24.768 29.5147 23.8293 30.0907 22.912 30.88L21.568 27.808C22.4853 26.9973 23.616 26.3467 24.96 25.856C26.3253 25.3653 27.7547 25.12 29.248 25.12C31.68 25.12 33.5467 25.664 34.848 26.752C36.1493 27.84 36.8 29.3973 36.8 31.424C36.8 32.832 36.4693 34.176 35.808 35.456C35.1467 36.7147 34.1227 38.0373 32.736 39.424L26.496 45.664V44.576H37.696V48H22.496Z" fill="#0D0D0D"/>
</svg>
