<svg width="60" height="60" viewBox="0 0 60 60" fill="none" xmlns="http://www.w3.org/2000/svg">
<g id="send-email--mail-send-email-paper-airplane" clip-path="url(#clip0_436_197)">
<g id="send-email--mail-send-email-paper-airplane_2">
<g id="Union">
<path fill-rule="evenodd" clip-rule="evenodd" d="M54.5221 0.154997C53.2364 -0.12542 51.8984 -0.034582 50.6628 0.416493L4.74767 15.7359L4.73323 15.7407C3.56387 16.1401 2.52239 16.8446 1.71642 17.7813C0.915929 18.7116 0.376608 19.8374 0.153251 21.0439C-0.069818 22.1482 -0.0172094 23.2906 0.3066 24.37C0.632729 25.4571 1.22374 26.4462 2.02655 27.2484L13.1086 38.3304L12.7471 52.2692C12.7274 53.0265 13.1093 53.7384 13.7514 54.1404C14.3935 54.5428 15.2004 54.5762 15.8735 54.2282L24.5052 49.7646L32.7223 57.9444C33.5536 58.7921 34.591 59.4092 35.7328 59.7354C36.8757 60.0619 38.0838 60.0859 39.2385 59.8044C40.3929 59.5335 41.4588 58.9716 42.3344 58.1715C43.2125 57.3692 43.8695 56.3548 44.2428 55.2259L59.5608 9.31431C60.0117 8.07904 60.1025 6.74069 59.8222 5.45532C59.539 4.15708 58.8888 2.96745 57.9494 2.02786C57.0099 1.08827 55.8202 0.438221 54.5221 0.154997Z" fill="#E35ED8"/>
<path fill-rule="evenodd" clip-rule="evenodd" d="M54.5221 0.154997C53.2364 -0.12542 51.8984 -0.034582 50.6628 0.416493L4.74767 15.7359L4.73323 15.7407C3.56387 16.1401 2.52239 16.8446 1.71642 17.7813C0.915929 18.7116 0.376608 19.8374 0.153251 21.0439C-0.069818 22.1482 -0.0172094 23.2906 0.3066 24.37C0.632729 25.4571 1.22374 26.4462 2.02655 27.2484L13.1086 38.3304L12.7471 52.2692C12.7274 53.0265 13.1093 53.7384 13.7514 54.1404C14.3935 54.5428 15.2004 54.5762 15.8735 54.2282L24.5052 49.7646L32.7223 57.9444C33.5536 58.7921 34.591 59.4092 35.7328 59.7354C36.8757 60.0619 38.0838 60.0859 39.2385 59.8044C40.3929 59.5335 41.4588 58.9716 42.3344 58.1715C43.2125 57.3692 43.8695 56.3548 44.2428 55.2259L59.5608 9.31431C60.0117 8.07904 60.1025 6.74069 59.8222 5.45532C59.539 4.15708 58.8888 2.96745 57.9494 2.02786C57.0099 1.08827 55.8202 0.438221 54.5221 0.154997Z" fill="white" fill-opacity="0.35"/>
</g>
<path id="Union_2" d="M13.1088 38.3326L12.7473 52.2713C12.7276 53.0286 13.1095 53.7404 13.7516 54.1428C14.3937 54.5448 15.2006 54.5783 15.8737 54.2303L24.5054 49.7667L13.1088 38.3326Z" fill="#E35ED8"/>
<path id="Intersect" fill-rule="evenodd" clip-rule="evenodd" d="M13.101 38.6258L43.2939 16.694C44.4905 15.8246 44.7562 14.1495 43.8866 12.9526C43.0175 11.7558 41.3423 11.4903 40.1453 12.3597L9.44043 34.6635L13.1087 38.3317L13.101 38.6258Z" fill="#E35ED8"/>
</g>
</g>
<defs>
<clipPath id="clip0_436_197">
<rect width="60" height="60" fill="white"/>
</clipPath>
</defs>
</svg>
