<svg width="64" height="65" viewBox="0 0 64 65" fill="none" xmlns="http://www.w3.org/2000/svg">
<g id="Frame 14261">
<circle id="Ellipse 291" cx="32" cy="32.2627" r="32" fill="#0D0D0D"/>
<path id="Vector" d="M41.2381 20.0596C39.8333 18.4553 39.059 16.3954 39.0592 14.2629H32.7075V39.7518C32.6596 41.1315 32.0776 42.4386 31.0843 43.3973C30.091 44.3561 28.7642 44.8915 27.3837 44.8907C24.4648 44.8907 22.0392 42.5063 22.0392 39.5463C22.0392 36.0107 25.4514 33.359 28.9664 34.4485V27.9529C21.8748 27.0074 15.667 32.5163 15.667 39.5463C15.667 46.3913 21.3403 51.2629 27.3631 51.2629C33.8175 51.2629 39.0592 46.0213 39.0592 39.5463V26.6168C41.6348 28.4665 44.7271 29.4589 47.8981 29.4535V23.1018C47.8981 23.1018 44.0337 23.2868 41.2381 20.0596Z" fill="white"/>
</g>
</svg>
