<svg width="60" height="60" viewBox="0 0 60 60" fill="none" xmlns="http://www.w3.org/2000/svg">
<g id="webcam-video-circle--work-video-meeting-camera-company-conference-office" clip-path="url(#clip0_436_190)">
<g id="webcam-video-circle--work-video-meeting-camera-company-conference-office_2">
<g id="Union">
<path fill-rule="evenodd" clip-rule="evenodd" d="M30 0C13.4315 0 0 13.4315 0 30C0 46.5686 13.4315 60 30 60C46.5686 60 60 46.5686 60 30C60 13.4315 46.5686 0 30 0Z" fill="#C082F2"/>
<path fill-rule="evenodd" clip-rule="evenodd" d="M30 0C13.4315 0 0 13.4315 0 30C0 46.5686 13.4315 60 30 60C46.5686 60 60 46.5686 60 30C60 13.4315 46.5686 0 30 0Z" fill="white" fill-opacity="0.4"/>
</g>
<path id="Vector" d="M43.4349 22.4977L36.9252 25.3831V21.9206C36.9252 21.3083 36.682 20.7212 36.2491 20.2883C35.8162 19.8554 35.229 19.6122 34.6168 19.6122H17.304C16.6918 19.6122 16.1046 19.8554 15.6717 20.2883C15.2388 20.7212 14.9956 21.3083 14.9956 21.9206V38.0792C14.9956 38.6914 15.2388 39.2786 15.6717 39.7115C16.1046 40.1444 16.6918 40.3876 17.304 40.3876H34.6168C35.229 40.3876 35.8162 40.1444 36.2491 39.7115C36.682 39.2786 36.9252 38.6914 36.9252 38.0792V34.6166L43.4349 37.5021C43.6102 37.5698 43.7996 37.5936 43.9865 37.5714C44.1734 37.5492 44.3516 37.4817 44.5068 37.3748C44.6615 37.2678 44.7875 37.1246 44.8745 36.9578C44.9611 36.7909 45.0056 36.6053 45.0044 36.4172V23.5826C45.0056 23.3945 44.9611 23.2089 44.8745 23.042C44.7875 22.8751 44.6615 22.7319 44.5068 22.625C44.3516 22.518 44.1734 22.4505 43.9865 22.4283C43.7996 22.4061 43.6102 22.43 43.4349 22.4977Z" fill="#C082F2"/>
</g>
</g>
<defs>
<clipPath id="clip0_436_190">
<rect width="60" height="60" fill="white"/>
</clipPath>
</defs>
</svg>
